<?xml version="1.0" encoding="utf-8"?>
<!-- Generator: Adobe Illustrator 25.0.1, SVG Export Plug-In . SVG Version: 6.00 Build 0)  -->
<svg version="1.1" id="Layer_1" xmlns="http://www.w3.org/2000/svg" xmlns:xlink="http://www.w3.org/1999/xlink" x="0px" y="0px"
	 viewBox="0 0 1199.81 592.81" style="enable-background:new 0 0 1199.81 592.81;" xml:space="preserve">
<style type="text/css">
	.st0{fill:#03534D;}
	.st1{fill:#06554F;}
	.st2{fill:#02524C;}
</style>
<g>
	<path class="st0" d="M528.93,0.99c8.57,2.46,13.54,8.22,14.78,16.93c1.26,8.86-0.95,16.52-8.89,21.76
		c-4.76,3.15-10.14,4.95-15.31,7.2c-51.53,22.42-87.14,59.46-103.95,113.57c-10.54,33.92-9.29,67.65,5.59,99.88
		c23.78,51.49,61.14,89.61,114.95,109.74c37.48,14.02,75.76,12.71,113.97,2.75c41.27-10.76,76.87-30.93,102.78-65.53
		c25.54-34.1,39.89-72.43,38.97-115.51c-0.61-28.49-11.16-53.8-27.28-76.93c-22.47-32.24-51.46-56.37-88.36-70.58
		c-1.86-0.72-3.7-1.5-5.51-2.33c-8.44-3.87-13.5-10.04-13.44-19.73c0.05-9.74,4.1-16.95,13.11-21.12c0.57-0.26,1.05-0.72,1.57-1.09
		c5.33,0,10.66,0,16,0c3.48,2.27,7.61,2.86,11.37,4.41c20.02,8.28,35.87,22.08,50.19,37.87c25.1,27.68,43.79,58.91,52.41,95.61
		c9.77,41.57,4.67,81.99-10.09,121.49c-17.02,45.54-45,82.38-88.57,105.28c-74.23,39.01-162.98,37.6-232.53-20.05
		c-45.19-37.46-71.45-85.75-74.85-144.67c-4.45-77.32,25.03-139.41,87.93-185.11c9.02-6.55,18.91-11.74,30.09-13.87
		C518.87,0.98,523.9,0.99,528.93,0.99z"/>
	<path class="st0" d="M1034.83,592.81c-0.02-0.17,0-0.45-0.07-0.48c-26.27-10.22-33.43-31.81-33.5-57.2
		c-0.04-13.69,3.18-26.72,11.62-37.97c18.94-25.24,58.11-23.92,73.96,3.33c13.74,23.62,13.12,48.25,0.12,72.29
		c-5.46,10.09-14.74,15.87-25.13,20.03C1052.83,592.81,1043.83,592.81,1034.83,592.81z M1020.55,534.24
		c-0.12,13.08,2.38,22.64,7.31,29.69c10.74,15.36,32.24,15.13,42.49-0.44c9.24-14.04,8.98-39.95-0.54-53.79
		c-11.12-16.15-33.71-15.3-43.54,1.7C1021.9,518.95,1020.5,527.28,1020.55,534.24z"/>
	<path class="st0" d="M490.92,592.81c-2.29-1.8-5.24-1.66-7.83-2.67c-14.23-5.56-22.95-16.17-27.5-30.31
		c-5.63-17.53-5.49-35.18,1.45-52.29c7.51-18.53,21.48-29.09,41.74-29.4c19.98-0.31,34.53,9.27,42.34,27.61
		c8.77,20.61,8.46,41.54-1.19,61.87c-6.11,12.88-16.37,21.15-30.5,24.22c-0.66,0.14-1.29,0.2-1.51,0.97
		C502.25,592.81,496.59,592.81,490.92,592.81z M527.97,535.87c-0.06-9.6-1.66-18.84-7.09-27.03c-10.64-16.05-32.51-16.2-43.03-0.35
		c-9.39,14.13-9.18,40.2,0.43,54.13c11.26,16.34,33.95,15.42,43.83-1.79C526.52,553.11,527.87,544.65,527.97,535.87z"/>
	<path class="st1" d="M895.86,592.81c0.08-15.79,0.21-31.58,0.24-47.37c0.04-19.98,0.12-39.96-0.08-59.93
		c-0.04-3.83,1.08-4.97,4.78-4.63c3.47,0.32,7.01,0.29,10.48,0c3.13-0.26,3.94,0.82,3.89,3.88c-0.17,11.82,0.06,23.64-0.15,35.46
		c-0.06,3.51,0.55,4.88,4.52,4.79c12.82-0.29,25.64-0.29,38.46,0c4.04,0.09,4.55-1.39,4.49-4.84c-0.19-11.48,0.04-22.98-0.14-34.46
		c-0.05-3.43,0.42-5.26,4.51-4.84c4.61,0.47,10.83-1.48,13.51,0.86c3.14,2.74,0.98,9.1,0.99,13.87c0.09,31.47,0.04,62.93,0.06,94.4
		c0,0.94-0.51,2,0.42,2.81c-6.33,0-12.66,0-19,0c-0.13-1.98-0.38-3.97-0.38-5.95c-0.04-12.48-0.27-24.97,0.11-37.44
		c0.14-4.78-1.45-5.72-5.84-5.61c-11.98,0.29-23.97,0.28-35.94,0c-4.35-0.1-5.95,0.77-5.85,5.58c0.3,14.46-0.01,28.94-0.09,43.41
		C908.52,592.81,902.19,592.81,895.86,592.81z"/>
	<path class="st0" d="M820.87,592.81c-8.62-3.5-16.95-7.41-23.54-14.34c-2.25-2.36-2.96-3.88-0.01-6.23
		c2.98-2.37,5.66-5.17,8.25-7.99c1.81-1.97,2.92-1.73,4.79,0.06c9.36,9,20.53,12.55,33.42,10.51c4.03-0.64,7.82-1.81,10.59-5.01
		c4.89-5.64,3.47-14.52-3.06-18.55c-7.59-4.68-16.35-6.39-24.62-9.37c-3.59-1.29-7.19-2.61-10.67-4.15
		c-11.96-5.32-17.76-14.52-17.15-27.68c0.6-12.98,7.01-22.32,18.83-27.01c17.95-7.12,34.94-4.43,50.25,7.49
		c5.78,4.5,5.7,4.6,0.71,9.66c-2.57,2.61-4.73,6.36-7.84,7.51c-3.65,1.36-5.48-3.68-8.59-5.31c-7.86-4.14-15.98-5.54-24.61-3.5
		c-5.67,1.34-9.19,5.16-9.66,10.11c-0.52,5.48,2.51,8.63,7.02,10.92c5.97,3.03,12.44,4.62,18.69,6.85
		c4.69,1.67,9.45,3.23,13.97,5.29c12.59,5.73,19.34,15.26,18.66,29.51c-0.7,14.71-7.58,24.77-21.7,29.66
		c-0.92,0.32-2.48-0.05-2.74,1.56C841.53,592.81,831.2,592.81,820.87,592.81z"/>
	<path class="st2" d="M1118.58,591.78c-1.03-1.33-0.56-2.89-0.57-4.34c-0.03-33.92,0.06-67.85-0.13-101.77
		c-0.02-4.2,1.43-4.85,5.1-4.79c12.47,0.2,24.95,0.35,37.42,0.01c17.99-0.48,32.25,5.02,39.4,22.94c0,8.33,0,16.66,0,24.99
		c-6.92,16.74-20.06,23.33-37.48,23.05c-7.16-0.11-14.33,0.15-21.49-0.09c-3.23-0.11-4.19,0.78-4.16,4.09
		c0.1,11.97-0.15,23.95-0.27,35.92C1130.46,591.8,1124.52,591.79,1118.58,591.78z M1136.76,516.57c0,4.66,0.15,9.33-0.06,13.99
		c-0.12,2.66,0.74,3.38,3.36,3.33c8.33-0.16,16.66,0.04,24.98-0.09c10.79-0.17,16.51-6.01,16.73-16.85
		c0.22-10.61-5.53-17.34-15.93-17.81c-8.64-0.4-17.32-0.03-25.98-0.16c-2.37-0.03-3.23,0.69-3.15,3.11
		C1136.87,506.91,1136.76,511.74,1136.76,516.57z"/>
	<path class="st2" d="M0,479.85c26.48-0.07,52.95-0.12,79.43-0.24c2.29-0.01,3.38,0.6,3.22,3.08c-0.33,5.12,1.97,11.51-0.9,15.03
		c-2.59,3.18-9.07,0.75-13.82,0.96c-4.32,0.19-8.68,0.28-12.98-0.04c-3.45-0.26-4.04,1.1-4.02,4.2c0.11,27.81-0.05,55.62,0.18,83.43
		c0.04,4.35-1.28,5.51-5.29,5.02c-4.56-0.57-10.69,2.01-13.33-1.08c-2.26-2.65-0.79-8.57-0.79-13.04
		c-0.03-24.48-0.13-48.96,0.09-73.44c0.04-4.29-1.27-5.26-5.3-5.11c-8.81,0.33-17.65,0.17-26.47,0.21C0,492.51,0,486.18,0,479.85z"
		/>
	<path class="st1" d="M1136.41,591.8c0.14,0.34,0.27,0.67,0.41,1.01c-6.33,0-12.66,0-19,0c0.25-0.34,0.5-0.69,0.76-1.03
		C1124.52,591.79,1130.46,591.8,1136.41,591.8z"/>
	<path class="st1" d="M528.93,0.99c-5.03-0.01-10.06-0.01-15.09-0.02c0.07-0.21,0.16-0.42,0.2-0.64c0.02-0.1-0.08-0.22-0.12-0.33
		c5,0,10,0,15,0C528.92,0.33,528.93,0.66,528.93,0.99z"/>
	<path class="st2" d="M420.97,530.96c13.57,8.01,18.12,18.91,14.88,35.02c-2.75,13.71-13.4,23.22-28.96,24.65
		c-16.76,1.54-33.61,0.38-50.41,0.67c-3.85,0.07-2.62-2.7-2.62-4.54c-0.06-26.3-0.04-52.6-0.04-78.9c0-8.16,0.11-16.31-0.06-24.47
		c-0.06-2.76,0.66-3.69,3.55-3.66c15.15,0.16,30.3-0.19,45.44,0.19c21.35,0.54,34.51,18.47,28.18,37.86
		C429.43,522.39,427.51,524.96,420.97,530.96z M388.49,573.82c0-0.07,0-0.14,0-0.21c4.99,0,10.03,0.4,14.98-0.08
		c9.68-0.95,14.43-6.58,14.46-16.35c0.03-9.58-4.98-15.56-14.35-16.58c-9.62-1.05-19.3-0.16-28.95-0.47
		c-2.66-0.08-2.92,1.28-2.91,3.39c0.06,8.99,0.11,17.99-0.03,26.98c-0.04,2.57,0.64,3.51,3.32,3.38
		C379.49,573.66,384,573.82,388.49,573.82z M387.65,522.86c4,0,8,0.07,11.99-0.01c8.77-0.17,13.6-4.58,13.74-12.43
		c0.14-8.16-4.16-12.78-12.95-13.12c-8.48-0.33-16.99,0-25.48-0.17c-2.83-0.06-3.29,1.18-3.25,3.59c0.12,6.33,0.18,12.66-0.02,18.98
		c-0.09,2.81,1.05,3.31,3.48,3.22C379.32,522.76,383.49,522.87,387.65,522.86z"/>
	<path class="st1" d="M99.07,535.84c0-16.99,0.12-33.98-0.09-50.97c-0.05-3.95,0.62-5.78,5.04-5.32c4.61,0.48,10.83-1.46,13.53,0.89
		c3.13,2.73,0.88,9.09,0.98,13.86c0.17,8.32,0.15,16.66-0.01,24.98c-0.06,3.1,0.68,4.37,4.12,4.32c12.99-0.2,25.99-0.16,38.98-0.02
		c2.87,0.03,3.68-0.88,3.65-3.68c-0.13-11.82,0.06-23.65-0.13-35.48c-0.06-3.47,0.46-5.25,4.52-4.87
		c4.79,0.44,11.23-1.56,14.03,0.87c3.22,2.79,1.02,9.39,1.03,14.31c0.1,30.65-0.03,61.3,0.14,91.94c0.02,3.83-1.06,4.98-4.75,4.65
		c-3.47-0.3-7.01-0.28-10.48,0c-3.44,0.27-4.56-0.8-4.51-4.38c0.21-13.32-0.01-26.65,0.15-39.97c0.04-3.14-0.64-4.27-4.05-4.21
		c-12.82,0.21-25.66,0.23-38.48-0.01c-3.71-0.07-4.3,1.24-4.25,4.54c0.18,12.99-0.05,25.99,0.15,38.97
		c0.06,3.73-0.64,5.55-4.85,5.08c-3.46-0.38-7.01-0.33-10.48-0.01c-3.68,0.34-4.34-1.19-4.31-4.53
		C99.15,569.82,99.07,552.83,99.07,535.84z"/>
	<path class="st2" d="M567.81,535.29c0-17.15,0.09-34.29-0.08-51.44c-0.03-3.25,0.81-4.25,4.11-4.12
		c12.13,0.48,24.35-0.97,36.41,0.78c27.31,3.96,43.27,21.97,44.57,49.7c0.55,11.77-0.58,23.29-5.85,34.04
		c-8.16,16.64-22.22,24.66-40.09,26.47c-11.94,1.21-23.96,0.3-35.94,0.61c-3.48,0.09-3.14-1.88-3.14-4.11
		C567.82,569.92,567.81,552.61,567.81,535.29z M586.68,535.45c0,7.49-0.04,14.98,0.01,22.47c0.03,4.8-1.69,11.66,0.76,13.89
		c3.45,3.14,10.1,1.14,15.35,0.85c16.09-0.88,26.63-9.85,29.83-25.17c1.13-5.39,1.5-10.87,1.08-16.39
		c-1.35-17.89-9.7-28.76-24.81-31.93c-6.05-1.27-12.25-1.01-18.4-1.16c-3.14-0.08-3.92,1-3.88,3.99
		C586.78,513.15,586.68,524.3,586.68,535.45z"/>
	<path class="st1" d="M209.19,535.08c0-16.99,0.08-33.98-0.07-50.97c-0.03-3.34,0.67-4.59,4.33-4.56
		c21.66,0.17,43.31,0.16,64.97,0.01c3.18-0.02,4.01,0.96,3.82,3.96c-0.31,4.8,1.52,11.06-0.88,14.05
		c-2.54,3.17-9.06,0.91-13.83,0.97c-11.66,0.16-23.32,0.17-34.98-0.02c-3.15-0.05-3.99,0.91-3.86,3.94
		c0.24,5.32,0.27,10.67-0.01,15.98c-0.18,3.29,1.15,3.83,4.03,3.77c7.83-0.17,15.66,0.04,23.49-0.11c2.75-0.05,3.91,0.67,3.73,3.62
		c-0.23,3.82-0.26,7.67,0.01,11.49c0.21,3.07-0.76,4.03-3.87,3.95c-7.82-0.21-15.66,0.08-23.49-0.14c-3.16-0.09-3.96,0.98-3.88,3.98
		c0.19,7.66,0.24,15.33-0.02,22.98c-0.12,3.48,0.89,4.49,4.42,4.44c15.49-0.19,30.99,0.07,46.48-0.18c4.2-0.07,5.61,1.15,5.18,5.28
		c-0.33,3.13-0.31,6.35,0,9.48c0.36,3.69-1.2,4.37-4.55,4.35c-22.16-0.13-44.31-0.17-66.47,0.02c-3.87,0.03-4.66-1.18-4.62-4.81
		C209.3,569.39,209.19,552.24,209.19,535.08z"/>
	<path class="st2" d="M705.49,528.82c7.79-15.53,16.65-30.37,24.98-45.51c1.49-2.72,3.13-3.72,6.2-3.58
		c5.59,0.26,11.21,0.07,16.94,0.07c-0.18,2.3-1.5,3.65-2.4,5.17c-11.57,19.61-23.16,39.22-34.82,58.78
		c-1.42,2.38-2.09,4.75-2.06,7.52c0.1,11.82-0.13,23.65,0.14,35.47c0.09,3.9-1.17,4.9-4.81,4.59c-4.45-0.38-10.4,1.38-13.03-0.88
		c-3.07-2.64-0.87-8.74-0.98-13.33c-0.23-9.98,1.7-20.48-0.83-29.79c-2.48-9.13-9.36-17.08-14.35-25.52
		c-8.11-13.72-16.25-27.42-24.89-41.98c7.32,0,14,0.01,20.67-0.01c2.23,0,2.5,1.98,3.25,3.31c8.01,14.36,16.46,28.49,23.8,43.23
		C703.71,527.19,703.83,528.34,705.49,528.82z"/>
	<path class="st2" d="M780.61,211.8c-2.96-6.26-5.77-12.18-8.54-18.11c-18.26-39.14-46.19-68.79-85.62-87.13
		c-9.06-4.22-15.7-9.95-14.82-21.21c1.08-13.71,13.16-22.15,26.22-17.84c11.71,3.87,22.04,10.36,30.95,18.74
		c34.5,32.45,53.77,71.76,53.03,119.85C781.81,207.83,782.19,209.72,780.61,211.8z"/>
	<path class="st2" d="M421.19,209.88c-2.58-24.42,0.93-47.79,11.74-69.75c13.53-27.49,31.98-50.92,58.54-67.08
		c6.11-3.72,12.67-6.63,20.18-6.25c8.52,0.44,13.84,5.19,16.89,12.67c3.02,7.41,2.11,14.33-3.68,20.26
		c-2.59,2.66-5.66,4.64-8.97,6.22c-43.52,20.71-73.27,54.19-91.43,98.45c-0.69,1.68-1.51,3.31-2.32,4.94
		C422.02,209.56,421.64,209.64,421.19,209.88z"/>
	<path class="st0" d="M515.08,154.24c-0.1,5.36-4.63,10.35-11.26,13.69c-12.8,6.44-25.11,13.64-36.6,22.25
		c-13.4,10.04-25.01,21.92-36.06,34.42c-1.09,1.23-1.74,4.47-4.22,2.83c-2.04-1.36-1.05-3.85-0.29-5.96
		c8.05-22.4,19.09-43.13,34.34-61.5c7.46-8.99,15.3-17.63,25.64-23.47C500.02,128.93,515.08,136.98,515.08,154.24z"/>
	<path class="st0" d="M774.15,228.88c-4.09-4.51-8.27-8.94-12.27-13.53c-16.53-18.97-36.64-33.19-58.86-44.66
		c-3.83-1.98-7.73-3.87-10.86-6.98c-6.41-6.38-7.41-14.61-2.63-22.25c4.67-7.48,12.19-10.1,20.75-7.11
		c6.1,2.13,10.95,6.24,15.75,10.34c14.92,12.73,25.67,28.68,34.85,45.78c5.49,10.23,11.51,20.26,13.44,31.99
		c0.32,1.96,0.51,3.93,0.76,5.9C774.77,228.55,774.46,228.71,774.15,228.88z"/>
</g>
</svg>
